<svg width="1480" height="1027" viewBox="0 0 1480 1027" fill="none" xmlns="http://www.w3.org/2000/svg">
<g clip-path="url(#clip0_2107_1000)">
<rect width="189" height="129" fill="#2E333C"/>
<rect y="1005" width="26" height="22" fill="#2E333C"/>
<rect x="1454" y="1005" width="26" height="22" fill="#2E333C"/>
<rect x="400" width="564" height="213" fill="#2E333C"/>
<rect x="964" width="518" height="52" fill="#2E333C"/>
<path d="M183 126H16C15.4477 126 15 126.448 15 127V1011.5C15 1012.05 15.4477 1012.5 16 1012.5H1464C1464.55 1012.5 1465 1012.05 1465 1011.5V49C1465 48.4477 1464.55 48 1464 48H962.5C961.948 48 961.5 48.4477 961.5 49V215C961.5 215.552 961.052 216 960.5 216H409C408.448 216 408 215.552 408 215V17C408 16.4477 407.552 16 407 16H185C184.448 16 184 16.4477 184 17V125C184 125.552 183.552 126 183 126Z" stroke="#181818" stroke-width="30"/>
<path d="M579 565.5C579 557.216 572.284 550.5 564 550.5C555.716 550.5 549 557.216 549 565.5H579ZM564 620H549V635H564V620ZM549 565.5V620H579V565.5H549ZM564 635H1464.5V605H564V635Z" fill="#181818"/>
<path d="M16 532H554C559.523 532 564 536.477 564 542V1016" stroke="#181818" stroke-width="30"/>
</g>
<defs>
<clipPath id="clip0_2107_1000">
<rect width="1480" height="1027" fill="white"/>
</clipPath>
</defs>
</svg>
