<svg width="1482" height="1027" viewBox="0 0 1482 1027" fill="none" xmlns="http://www.w3.org/2000/svg">
<g clip-path="url(#clip0_2107_1000)">
<rect width="1482" height="1027" fill="#2E303A"/>
<path d="M185 126H18C17.4477 126 17 126.448 17 127V1011.5C17 1012.05 17.4477 1012.5 18 1012.5H1466C1466.55 1012.5 1467 1012.05 1467 1011.5V49C1467 48.4477 1466.55 48 1466 48H964.5C963.948 48 963.5 48.4477 963.5 49V215C963.5 215.552 963.052 216 962.5 216H411C410.448 216 410 215.552 410 215V16C410 15.4477 409.552 15 409 15H187C186.448 15 186 15.4477 186 16V125C186 125.552 185.552 126 185 126Z" fill="#E5FD00" stroke="#181818" stroke-width="30"/>
<path d="M579 565.5C579 557.216 572.284 550.5 564 550.5C555.716 550.5 549 557.216 549 565.5H579ZM564 620H549V635H564V620ZM549 565.5V620H579V565.5H549ZM564 635H1464.5V605H564V635Z" fill="#181818"/>
<path d="M16 532H554C559.523 532 564 536.477 564 542V1016" stroke="#181818" stroke-width="30"/>
</g>
<defs>
<clipPath id="clip0_2107_1000">
<rect width="1482" height="1027" fill="white"/>
</clipPath>
</defs>
</svg>
